<?xml version="1.0" standalone="no"?>
<!DOCTYPE svg PUBLIC "-//W3C//DTD SVG 20010904//EN"
 "http://www.w3.org/TR/2001/REC-SVG-20010904/DTD/svg10.dtd">
<svg version="1.0" xmlns="http://www.w3.org/2000/svg"
 width="611.000000pt" height="610.000000pt" viewBox="0 0 611.000000 610.000000"
 preserveAspectRatio="xMidYMid meet">

<g transform="translate(0.000000,610.000000) scale(0.100000,-0.100000)"
fill="#000000" stroke="none">
<path d="M1720 5210 c-395 -40 -711 -320 -813 -717 l-22 -88 0 -1355 c0 -1246
1 -1361 17 -1432 40 -178 118 -326 237 -451 131 -137 278 -224 457 -269 l89
-23 1375 0 1375 0 96 27 c333 92 575 334 668 667 l26 96 0 1375 0 1375 -23 89
c-45 179 -132 326 -269 457 -89 85 -185 146 -297 190 -171 66 -77 62 -1526 65
-723 1 -1349 -2 -1390 -6z m2197 -1112 c113 -41 201 -127 245 -238 30 -77 31
-213 1 -288 -32 -80 -899 -1415 -955 -1472 -59 -59 -173 -117 -257 -132 -80
-13 -172 0 -250 38 -62 30 -90 57 -459 441 -261 273 -290 313 -312 433 -48
267 200 517 468 470 112 -19 169 -56 309 -201 70 -71 130 -126 134 -122 4 5
139 211 298 458 160 248 314 476 341 507 107 121 281 163 437 106z"/>
</g>
</svg>
