<?xml version="1.0" standalone="no"?>
<!DOCTYPE svg PUBLIC "-//W3C//DTD SVG 20010904//EN"
 "http://www.w3.org/TR/2001/REC-SVG-20010904/DTD/svg10.dtd">
<svg version="1.0" xmlns="http://www.w3.org/2000/svg"
 width="612.000000pt" height="612.000000pt" viewBox="0 0 612.000000 612.000000"
 preserveAspectRatio="xMidYMid meet">

<g transform="translate(0.000000,612.000000) scale(0.100000,-0.100000)"
fill="#000000" stroke="none">
<path d="M2868 4866 c-853 -444 -2313 -1217 -2319 -1229 -14 -24 -1 -43 49
-70 26 -14 576 -303 1222 -643 1164 -612 1176 -617 1235 -618 l60 -1 1219 640
c894 470 1221 646 1229 663 8 17 7 26 -4 37 -8 7 -315 172 -684 365 -368 194
-848 446 -1065 560 -702 369 -704 370 -754 370 -36 0 -72 -14 -188 -74z"/>
<path d="M1410 2443 l1 -418 391 -205 c216 -113 575 -301 798 -418 l405 -213
60 4 c57 3 102 25 850 419 l790 416 3 411 c2 311 -1 411 -10 411 -6 0 -365
-186 -797 -412 -782 -411 -786 -413 -846 -413 -60 0 -65 3 -770 374 -390 205
-747 393 -792 418 l-83 44 0 -418z"/>
</g>
</svg>
