<?xml version="1.0" standalone="no"?>
<!DOCTYPE svg PUBLIC "-//W3C//DTD SVG 20010904//EN"
 "http://www.w3.org/TR/2001/REC-SVG-20010904/DTD/svg10.dtd">
<svg version="1.0" xmlns="http://www.w3.org/2000/svg"
 width="611.000000pt" height="612.000000pt" viewBox="0 0 611.000000 612.000000"
 preserveAspectRatio="xMidYMid meet">

<g transform="translate(0.000000,612.000000) scale(0.100000,-0.100000)"
fill="#000000" stroke="none">
<path d="M2 3058 l3 -3063 2 3057 3 3058 3053 3 3052 2 -3057 3 -3058 2 2
-3062z"/>
<path d="M2885 5464 c-1050 -85 -1916 -821 -2164 -1836 -50 -206 -65 -338 -65
-578 0 -232 13 -353 61 -555 164 -696 637 -1290 1278 -1605 232 -113 460 -186
710 -225 159 -25 464 -30 629 -11 719 84 1347 467 1747 1066 81 122 204 365
253 500 49 136 100 335 122 480 28 174 26 560 -4 730 -89 518 -300 940 -652
1304 -375 387 -850 630 -1390 711 -103 15 -426 27 -525 19z m-300 -905 c62
-17 120 -82 134 -149 8 -40 11 -418 9 -1390 l-3 -1335 -24 -42 c-14 -24 -42
-55 -64 -70 l-40 -28 -231 -3 c-224 -3 -232 -2 -276 20 -26 13 -57 41 -75 66
l-30 44 0 1376 c0 1373 0 1377 21 1416 24 46 54 71 110 91 49 18 409 21 469 4z
m1426 0 c53 -18 99 -58 120 -103 18 -39 19 -94 19 -1399 0 -1474 3 -1395 -53
-1456 -50 -54 -84 -61 -317 -61 -188 0 -220 3 -255 19 -47 22 -89 64 -104 104
-8 20 -11 453 -11 1393 0 1322 1 1366 19 1402 25 49 60 81 108 97 49 18 423
21 474 4z"/>
</g>
</svg>
