<?xml version="1.0" standalone="no"?>
<!DOCTYPE svg PUBLIC "-//W3C//DTD SVG 20010904//EN"
 "http://www.w3.org/TR/2001/REC-SVG-20010904/DTD/svg10.dtd">
<svg version="1.0" xmlns="http://www.w3.org/2000/svg"
 width="609.000000pt" height="607.000000pt" viewBox="0 0 609.000000 607.000000"
 preserveAspectRatio="xMidYMid meet">

<g transform="translate(0.000000,607.000000) scale(0.100000,-0.100000)"
fill="#000000" stroke="none">
<path d="M2855 5454 c-1050 -85 -1916 -821 -2164 -1836 -50 -206 -65 -338 -65
-578 0 -232 13 -353 61 -555 164 -696 637 -1290 1278 -1605 232 -113 460 -186
710 -225 159 -25 464 -30 629 -11 719 84 1347 467 1747 1066 81 122 204 365
253 500 49 136 100 335 122 480 28 174 26 560 -4 730 -89 518 -300 940 -652
1304 -375 387 -850 630 -1390 711 -103 15 -426 27 -525 19z m-766 -931 c1113
-637 2441 -1410 2459 -1429 27 -31 28 -63 2 -96 -10 -14 -102 -73 -202 -131
-235 -135 -375 -216 -1468 -847 -681 -394 -913 -523 -938 -524 -21 0 -41 8
-55 22 l-22 23 -3 1482 c-1 815 0 1492 3 1505 9 35 42 62 76 62 21 0 72 -23
148 -67z"/>
</g>
</svg>
