<?xml version="1.0" encoding="UTF-8" standalone="no"?>
<svg
   version="1.0"
   width="615.000000pt"
   height="618.000000pt"
   viewBox="0 0 615.000000 618.000000"
   preserveAspectRatio="xMidYMid meet"
   id="svg16"
   sodipodi:docname="save_icon_1.svg"
   inkscape:version="1.1.2 (0a00cf5339, 2022-02-04)"
   xmlns:inkscape="http://www.inkscape.org/namespaces/inkscape"
   xmlns:sodipodi="http://sodipodi.sourceforge.net/DTD/sodipodi-0.dtd"
   xmlns="http://www.w3.org/2000/svg"
   xmlns:svg="http://www.w3.org/2000/svg">
  <defs
     id="defs20" />
  <sodipodi:namedview
     id="namedview18"
     pagecolor="#ffffff"
     bordercolor="#666666"
     borderopacity="1.0"
     inkscape:pageshadow="2"
     inkscape:pageopacity="0.0"
     inkscape:pagecheckerboard="0"
     inkscape:document-units="pt"
     showgrid="false"
     inkscape:zoom="0.94296117"
     inkscape:cx="367.9897"
     inkscape:cy="496.83912"
     inkscape:window-width="1920"
     inkscape:window-height="1008"
     inkscape:window-x="0"
     inkscape:window-y="0"
     inkscape:window-maximized="1"
     inkscape:current-layer="g14" />
  <g
     transform="translate(0.000000,618.000000) scale(0.100000,-0.100000)"
     fill="#000000"
     stroke="none"
     id="g14">
    <g
       id="g1339"
       transform="translate(-1840.3668,1777.6448)">
      <path
         d="m 3534.3668,2911.8552 c -19,-12 -42,-38 -51,-57 -17,-33 -18,-127 -18,-1546 v -1511 l 23,-33 c 12,-18 35,-43 50,-54 l 28,-21 h 1349 1349 l 28,21 c 15,11 38,36 51,54 l 22,33 v 1331 1331 l -238,238 -237,237 h -53 -52 v -332 c 0,-212 -4,-347 -11,-373 -15,-52 -74,-110 -126,-124 -30,-8 -256,-11 -772,-9 l -729,3 -43,30 c -83,59 -84,63 -87,458 l -3,347 h -223 c -215,0 -224,-1 -257,-23 z m 2338,-1200 c 66,-17 125,-65 155,-125 l 23,-47 v -640 c 0,-637 0,-640 -22,-680 -12,-22 -36,-54 -55,-72 -69,-67 -9,-63 -1064,-63 -729,0 -966,3 -998,12 -24,7 -61,32 -88,58 -81,78 -79,64 -76,771 3,606 3,614 24,654 38,70 98,118 169,136 17,4 446,7 955,8 738,1 936,-2 977,-12 z"
         id="path4" />
      <path
         d="m 4129.3668,1470.8552 c -39,-39 -45,-89 -17,-137 36,-61 13,-59 787,-59 764,0 754,-1 789,53 9,15 17,45 17,68 0,33 -6,47 -34,75 l -34,34 h -737 -737 z"
         id="path6" />
      <path
         d="m 4147.3668,1004.8552 c -72,-44 -68,-156 8,-195 44,-23 1446,-23 1490,0 67,35 82,120 31,177 l -29,33 -734,3 c -719,2 -734,2 -766,-18 z"
         id="path8" />
      <path
         d="m 4158.3668,529.8552 c -38,-16 -63,-60 -63,-111 0,-28 8,-44 34,-70 l 34,-34 h 737 737 l 34,34 c 28,28 34,41 34,78 0,52 -21,85 -66,104 -49,21 -1433,20 -1481,-1 z"
         id="path10" />
      <path
         d="m 4225.3668,2649.8552 c 0,-314 3,-330 60,-360 44,-23 1186,-23 1230,0 57,30 60,46 60,360 v 285 h -675 -675 z"
         id="path12" />
    </g>
  </g>
</svg>
