<?xml version="1.0" standalone="no"?>
<!DOCTYPE svg PUBLIC "-//W3C//DTD SVG 20010904//EN"
 "http://www.w3.org/TR/2001/REC-SVG-20010904/DTD/svg10.dtd">
<svg version="1.0" xmlns="http://www.w3.org/2000/svg"
 width="652.000000pt" height="652.000000pt" viewBox="0 0 652.000000 652.000000"
 preserveAspectRatio="xMidYMid meet">

<g transform="translate(0.000000,652.000000) scale(0.100000,-0.100000)"
fill="#000000" stroke="none">
<path d="M3050 5583 c-552 -56 -1049 -292 -1434 -679 -343 -345 -564 -774
-647 -1259 -26 -152 -36 -468 -20 -616 92 -812 570 -1500 1286 -1849 333 -163
600 -228 966 -237 226 -6 339 3 536 43 241 48 544 167 748 294 209 130 453
345 595 525 219 276 388 630 459 955 69 321 69 687 0 1010 -53 247 -188 562
-332 777 -389 580 -975 942 -1667 1029 -102 13 -394 17 -490 7z m345 -487 c28
-12 65 -40 84 -61 69 -79 66 -36 69 -802 l3 -692 497 -3 497 -3 48 -28 c50
-30 103 -94 124 -150 17 -46 16 -136 -3 -189 -21 -64 -75 -122 -142 -155 l-57
-28 -660 0 c-750 0 -717 -3 -795 81 -77 83 -72 17 -71 988 l1 871 28 55 c48
96 125 139 252 139 58 1 86 -4 125 -23z"/>
</g>
</svg>
