<?xml version="1.0" standalone="no"?>
<!DOCTYPE svg PUBLIC "-//W3C//DTD SVG 20010904//EN"
 "http://www.w3.org/TR/2001/REC-SVG-20010904/DTD/svg10.dtd">
<svg version="1.0" xmlns="http://www.w3.org/2000/svg"
 width="609.000000pt" height="608.000000pt" viewBox="0 0 609.000000 608.000000"
 preserveAspectRatio="xMidYMid meet">

<g transform="translate(0.000000,608.000000) scale(0.100000,-0.100000)"
fill="#000000" stroke="none">
<path d="M1182 5199 c-157 -26 -279 -155 -303 -322 -5 -34 -9 -149 -9 -254 l0
-193 2175 0 2175 0 0 218 c0 244 -10 303 -61 384 -59 91 -150 150 -260 168
-80 12 -3639 12 -3717 -1z"/>
<path d="M870 2573 c0 -865 4 -1350 10 -1392 18 -110 77 -201 168 -260 101
-65 -20 -61 1997 -61 1976 0 1894 -2 1988 53 62 37 132 117 159 185 l23 57 3
1373 2 1372 -2175 0 -2175 0 0 -1327z m1951 959 l29 -32 0 -356 0 -356 -29
-29 -29 -29 -792 0 c-548 0 -798 3 -812 11 -44 24 -48 57 -48 411 0 313 1 335
20 365 12 20 32 36 52 42 20 6 336 9 806 8 l774 -2 29 -33z m2058 0 c19 -10
43 -34 53 -53 17 -32 18 -75 18 -724 0 -649 -1 -692 -18 -724 -10 -19 -34 -43
-53 -53 -32 -17 -76 -18 -784 -18 -731 0 -751 1 -783 20 -18 11 -41 34 -52 52
-19 32 -20 52 -20 723 0 650 1 692 18 724 10 19 34 43 53 53 32 17 76 18 784
18 708 0 752 -1 784 -18z m-2086 -1056 c58 -39 57 -26 57 -621 0 -599 1 -593
-59 -628 -27 -16 -91 -17 -799 -17 l-770 0 -31 26 c-17 14 -35 42 -41 62 -8
25 -10 213 -8 574 3 524 3 537 24 565 11 15 36 36 55 46 32 16 85 17 789 15
723 -3 756 -4 783 -22z m2138 -795 c17 -21 19 -41 19 -218 0 -193 0 -194 -25
-218 l-24 -25 -806 0 -806 0 -24 25 c-25 24 -25 25 -25 217 0 208 5 232 53
241 12 3 381 4 820 3 l799 -1 19 -24z"/>
</g>
</svg>
